<?xml version="1.0" standalone="no"?><!DOCTYPE svg PUBLIC "-//W3C//DTD SVG 1.1//EN" "http://www.w3.org/Graphics/SVG/1.1/DTD/svg11.dtd"><svg class="icon" width="30px" height="30.00px" viewBox="0 0 1024 1024" version="1.1" xmlns="http://www.w3.org/2000/svg"><path d="M1019.297 512c0 277.799-225.334 503-503.297 503-277.962 0-503.296-225.201-503.296-503C12.704 234.2 238.037 9 516 9 793.963 9 1019.297 234.2 1019.297 512zM253.865 739.097c65.823-17.533 123.24-31.66 172.251-42.393 0-7.152 0.537-20.566 1.61-40.246-67.613 16.459-129.503 30.23-185.667 41.318L253.865 739.097zM437.923 367.226l-40.246-17.708c-15.025 28.44-29.245 54.558-42.661 78.345-20.391 0.537-41.768 1.074-64.125 1.61 28.617-45.788 60.276-102.668 94.98-170.642l-40.782-16.098c-35.777 84.072-69.759 147.392-101.956 189.96l10.195 36.489c16.455-1.43 43.465-3.308 81.028-5.634-32.557 55.27-59.564 94.174-81.028 116.711l8.586 39.174c58.667-9.299 108.395-16.811 149.177-22.537 1.073-12.879 2.683-26.295 4.83-40.246-40.07 6.082-75.125 11.268-105.175 15.561C343.656 525.35 386.048 457.021 437.923 367.226zM446.509 454.158c19.854-25.578 38.455-52.588 55.808-81.029 18.064 35.417 41.318 66.633 69.759 93.639-44.362 29.693-96.414 53.037-156.153 70.027 6.795 11.807 13.055 24.328 18.781 37.563 63.856-21.463 119.571-48.738 167.154-81.832 43.465 33.27 96.497 58.758 159.104 76.467 5.005-13.234 11.269-28.44 18.781-45.611-55.451-9.299-103.746-27.992-144.885-56.076 43.642-35.953 79.238-77.717 106.785-125.298l0-38.1L540.415 303.908c7.869-15.562 15.382-31.479 22.538-47.758l-40.246-13.415c-23.61 63.68-57.954 124.674-103.029 182.983C430.766 436.81 439.709 446.289 446.509 454.158zM701.934 771.293l19.854-42.391c-97.663-30.408-179.407-54.555-245.23-72.443l-16.635 37.563C530.039 712.978 610.711 738.736 701.934 771.293zM681.544 655.922l17.708-42.391c-54.021-19.318-108.039-37.027-162.057-53.125l-16.098 35.953C574.758 613.174 628.239 633.029 681.544 655.922zM604.004 443.426c-31.66-27.725-58.314-62.247-79.955-103.566l170.373 0C670.451 379.568 640.312 414.092 604.004 443.426z" fill="#20B2AA" /></svg>