<?xml version="1.0" standalone="no"?><!DOCTYPE svg PUBLIC "-//W3C//DTD SVG 1.1//EN" "http://www.w3.org/Graphics/SVG/1.1/DTD/svg11.dtd"><svg class="icon" width="30px" height="30.00px" viewBox="0 0 1024 1024" version="1.1" xmlns="http://www.w3.org/2000/svg"><path d="M553.890909 814.545455c32.581818 11.636364 53.527273 34.909091 53.527273 60.50909 0 37.236364-44.218182 67.490909-95.418182 67.49091-53.527273 0-95.418182-30.254545-95.418182-67.49091 0-25.6 20.945455-48.872727 53.527273-60.50909" fill="#BC743F" /><path d="M512 958.836364c-30.254545 0-55.854545-6.981818-76.8-23.272728-23.272727-16.290909-34.909091-37.236364-34.909091-60.509091 0-16.290909 6.981818-32.581818 18.618182-46.545454 11.636364-11.636364 27.927273-23.272727 46.545454-27.927273 9.309091-2.327273 18.618182 2.327273 20.945455 11.636364 2.327273 9.309091-2.327273 18.618182-11.636364 20.945454-25.6 9.309091-41.890909 25.6-41.890909 44.218182 0 27.927273 37.236364 51.2 79.127273 51.2 44.218182 0 79.127273-23.272727 79.127273-51.2 0-18.618182-16.290909-34.909091-41.890909-44.218182-9.309091-2.327273-13.963636-11.636364-11.636364-20.945454 2.327273-9.309091 11.636364-13.963636 20.945455-11.636364 18.618182 6.981818 34.909091 16.290909 46.545454 27.927273 11.636364 13.963636 18.618182 30.254545 18.618182 46.545454 0 23.272727-11.636364 46.545455-34.909091 60.509091-20.945455 13.963636-48.872727 23.272727-76.8 23.272728z m0 0" fill="#282727" /><path d="M553.890909 814.545455h-83.781818c-32.581818 11.636364-53.527273 34.909091-53.527273 60.50909 0 37.236364 44.218182 67.490909 95.418182 67.49091 53.527273 0 95.418182-30.254545 95.418182-67.49091 0-27.927273-23.272727-51.2-53.527273-60.50909z m-41.890909 100.072727c-37.236364 0-67.490909-20.945455-67.490909-48.872727 0-18.618182 16.290909-34.909091 39.563636-44.218182h60.509091c23.272727 6.981818 39.563636 23.272727 39.563637 44.218182-4.654545 27.927273-34.909091 48.872727-72.145455 48.872727z m0 0" fill="#955D36" /><path d="M553.890909 570.181818v269.963637c0 23.272727-18.618182 41.890909-41.890909 41.890909s-41.890909-18.618182-41.890909-41.890909V570.181818h83.781818z m0 0" fill="#FFF3CB" /><path d="M512 898.327273c-32.581818 0-58.181818-25.6-58.181818-58.181818V570.181818c0-9.309091 6.981818-16.290909 16.290909-16.290909h83.781818c9.309091 0 16.290909 6.981818 16.290909 16.290909v269.963637c0 32.581818-27.927273 58.181818-58.181818 58.181818z m-25.6-309.527273v253.672727c0 13.963636 11.636364 25.6 25.6 25.6 13.963636 0 25.6-11.636364 25.6-25.6V588.8h-51.2z m0 0" fill="#282727" /><path d="M512 570.181818v311.854546c23.272727 0 41.890909-18.618182 41.890909-41.890909V570.181818h-41.890909z m0 0" fill="#E5D9B9" /><path d="M467.781818 167.563636V65.163636c0-23.272727 18.618182-41.890909 41.890909-41.890909s41.890909 18.618182 41.890909 41.890909v100.072728h-83.781818z m0 0" fill="#FFF3CB" /><path d="M553.890909 183.854545h-83.781818c-9.309091 0-16.290909-6.981818-16.290909-16.290909V65.163636c0-32.581818 25.6-58.181818 58.181818-58.181818s58.181818 25.6 58.181818 58.181818v100.072728c0 11.636364-6.981818 18.618182-16.290909 18.618181z m-67.490909-34.90909h51.2V65.163636c0-13.963636-11.636364-25.6-25.6-25.6-13.963636 0-25.6 11.636364-25.6 25.6v83.781819z m0 0" fill="#282727" /><path d="M512 23.272727v141.963637h41.890909V65.163636c0-23.272727-20.945455-41.890909-41.890909-41.890909z m0 0" fill="#E5D9B9" /><path d="M467.781818 318.836364h83.781818V418.909091h-83.781818z" fill="#FFF3CB" /><path d="M553.890909 435.2h-83.781818c-9.309091 0-16.290909-6.981818-16.290909-16.290909v-100.072727c0-9.309091 6.981818-16.290909 16.290909-16.290909h83.781818c9.309091 0 16.290909 6.981818 16.290909 16.290909V418.909091c0 9.309091-6.981818 16.290909-16.290909 16.290909z m-67.490909-32.581818h51.2v-67.490909h-51.2v67.490909z m0 0" fill="#282727" /><path d="M512 318.836364h41.890909V418.909091h-41.890909z" fill="#E5D9B9" /><path d="M805.236364 318.836364H207.127273V167.563636H805.236364l76.8 76.8-76.8 74.472728z m0 0" fill="#F4BA45" /><path d="M805.236364 335.127273H207.127273c-9.309091 0-16.290909-6.981818-16.290909-16.290909V167.563636c0-9.309091 6.981818-16.290909 16.290909-16.290909H805.236364c4.654545 0 9.309091 2.327273 11.636363 4.654546l76.8 76.8c2.327273 2.327273 4.654545 6.981818 4.654546 11.636363s-2.327273 9.309091-4.654546 11.636364l-76.8 76.8c-2.327273 0-6.981818 2.327273-11.636363 2.327273zM223.418182 302.545455h574.836363l58.181819-58.181819L798.254545 186.181818H223.418182v116.363637z m0 0" fill="#434343" /><path d="M216.436364 570.181818h598.109091V418.909091H216.436364l-76.8 76.8 76.8 74.472727z m0 0" fill="#F4BA45" /><path d="M814.545455 588.8H216.436364c-4.654545 0-9.309091-2.327273-11.636364-4.654545L128 507.345455c-2.327273-2.327273-4.654545-6.981818-4.654545-11.636364s2.327273-9.309091 4.654545-11.636364l76.8-76.8c2.327273-2.327273 6.981818-4.654545 11.636364-4.654545h598.109091c9.309091 0 16.290909 6.981818 16.290909 16.290909v151.272727c0 9.309091-6.981818 18.618182-16.290909 18.618182zM223.418182 553.890909h574.836363v-118.690909H223.418182l-58.181818 58.181818L223.418182 553.890909z m0 0" fill="#282727" /><path d="M384 512h-41.890909c-9.309091 0-16.290909-6.981818-16.290909-16.290909 0-9.309091 6.981818-16.290909 16.290909-16.290909h41.890909c9.309091 0 16.290909 6.981818 16.290909 16.290909 0 9.309091-6.981818 16.290909-16.290909 16.290909z m260.654545 0h-176.872727c-9.309091 0-16.290909-6.981818-16.290909-16.290909 0-9.309091 6.981818-16.290909 16.290909-16.290909h176.872727c9.309091 0 16.290909 6.981818 16.29091 16.290909 2.327273 9.309091-6.981818 16.290909-16.29091 16.290909z m34.909091-253.672727h-41.890909c-9.309091 0-16.290909-6.981818-16.290909-16.290909 0-9.309091 6.981818-16.290909 16.290909-16.290909h41.890909c9.309091 0 16.290909 6.981818 16.290909 16.290909 0 9.309091-6.981818 16.290909-16.290909 16.290909z m-125.672727 0h-176.872727c-9.309091 0-16.290909-6.981818-16.290909-16.290909 0-9.309091 6.981818-16.290909 16.290909-16.290909h176.872727c9.309091 0 16.290909 6.981818 16.290909 16.290909 0 9.309091-6.981818 16.290909-16.290909 16.290909z m-41.890909 754.036363c-32.581818 0-62.836364-6.981818-90.763636-18.618181-27.927273-11.636364-48.872727-30.254545-62.836364-51.2-4.654545-6.981818-2.327273-18.618182 4.654545-23.272728 6.981818-4.654545 18.618182-2.327273 23.272728 4.654546 20.945455 32.581818 69.818182 53.527273 123.345454 53.527272s102.4-20.945455 123.345455-53.527272c4.654545-6.981818 16.290909-9.309091 23.272727-4.654546 6.981818 4.654545 9.309091 16.290909 4.654546 23.272728-13.963636 20.945455-34.909091 39.563636-62.836364 51.2-23.272727 11.636364-55.854545 18.618182-86.109091 18.618181z m41.890909-828.509091h-83.781818c-9.309091 0-16.290909-6.981818-16.290909-16.290909V65.163636c0-32.581818 25.6-58.181818 58.181818-58.181818s58.181818 25.6 58.181818 58.181818v100.072728c0 11.636364-6.981818 18.618182-16.290909 18.618181z m-67.490909-34.90909h51.2V65.163636c0-13.963636-11.636364-25.6-25.6-25.6-13.963636 0-25.6 11.636364-25.6 25.6v83.781819z m67.490909 286.254545h-83.781818c-9.309091 0-16.290909-6.981818-16.290909-16.290909v-100.072727c0-9.309091 6.981818-16.290909 16.290909-16.290909h83.781818c9.309091 0 16.290909 6.981818 16.290909 16.290909V418.909091c0 9.309091-6.981818 16.290909-16.290909 16.290909z m-67.490909-32.581818h51.2v-67.490909h-51.2v67.490909z m25.6 495.709091c-32.581818 0-58.181818-25.6-58.181818-58.181818V570.181818c0-9.309091 6.981818-16.290909 16.290909-16.290909h83.781818c9.309091 0 16.290909 6.981818 16.290909 16.290909v269.963637c0 32.581818-27.927273 58.181818-58.181818 58.181818z m-25.6-309.527273v253.672727c0 13.963636 11.636364 25.6 25.6 25.6 13.963636 0 25.6-11.636364 25.6-25.6V588.8h-51.2z m0 0" fill="#434343" /><path d="M216.436364 570.181818h598.109091v-32.581818H181.527273l34.909091 32.581818z m0 0" fill="#CE9D44" /><path d="M216.436364 411.927273h598.109091v32.581818H181.527273l34.909091-32.581818z m0 0" fill="#F6CA79" /><path d="M805.236364 318.836364H207.127273v-32.581819h630.690909L805.236364 318.836364z m0 0" fill="#CE9D44" /><path d="M805.236364 158.254545H207.127273v32.581819h630.690909L805.236364 158.254545z m0 0" fill="#F6CA79" /><path d="M805.236364 335.127273H207.127273c-9.309091 0-16.290909-6.981818-16.290909-16.290909V167.563636c0-9.309091 6.981818-16.290909 16.290909-16.290909H805.236364c4.654545 0 9.309091 2.327273 11.636363 4.654546l76.8 76.8c2.327273 2.327273 4.654545 6.981818 4.654546 11.636363s-2.327273 9.309091-4.654546 11.636364l-76.8 76.8c-2.327273 0-6.981818 2.327273-11.636363 2.327273zM223.418182 302.545455h574.836363l58.181819-58.181819L798.254545 186.181818H223.418182v116.363637z m591.127273 286.254545H216.436364c-4.654545 0-9.309091-2.327273-11.636364-4.654545L128 507.345455c-2.327273-2.327273-4.654545-6.981818-4.654545-11.636364s2.327273-9.309091 4.654545-11.636364l76.8-76.8c2.327273-2.327273 6.981818-4.654545 11.636364-4.654545h598.109091c9.309091 0 16.290909 6.981818 16.290909 16.290909v151.272727c0 9.309091-6.981818 18.618182-16.290909 18.618182zM223.418182 553.890909h574.836363v-118.690909H223.418182l-58.181818 58.181818L223.418182 553.890909z m288.581818 404.945455c-30.254545 0-55.854545-6.981818-76.8-23.272728-23.272727-16.290909-34.909091-37.236364-34.909091-60.509091 0-16.290909 6.981818-32.581818 18.618182-46.545454 11.636364-11.636364 27.927273-23.272727 46.545454-27.927273 9.309091-2.327273 18.618182 2.327273 20.945455 11.636364 2.327273 9.309091-2.327273 18.618182-11.636364 20.945454-25.6 9.309091-41.890909 25.6-41.890909 44.218182 0 27.927273 37.236364 51.2 79.127273 51.2 44.218182 0 79.127273-23.272727 79.127273-51.2 0-18.618182-16.290909-34.909091-41.890909-44.218182-9.309091-2.327273-13.963636-11.636364-11.636364-20.945454 2.327273-9.309091 11.636364-13.963636 20.945455-11.636364 18.618182 6.981818 34.909091 16.290909 46.545454 27.927273 11.636364 13.963636 18.618182 30.254545 18.618182 46.545454 0 23.272727-11.636364 46.545455-34.909091 60.509091-20.945455 13.963636-48.872727 23.272727-76.8 23.272728z m0 0" fill="#434343" /></svg>