<?xml version="1.0" standalone="no"?><!DOCTYPE svg PUBLIC "-//W3C//DTD SVG 1.1//EN" "http://www.w3.org/Graphics/SVG/1.1/DTD/svg11.dtd"><svg class="icon" width="32px" height="32.00px" viewBox="0 0 1024 1024" version="1.1" xmlns="http://www.w3.org/2000/svg"><path d="M804.48 488.0896V163.5328l-12.22656 3.82464c-31.11936 9.71776-65.34656 14.4384-104.64256 14.4384-88.75008 0-135.40864-24.57088-176.7424-46.33088-39.38816-20.70528-73.40544-38.59456-145.79712-38.59456-66.9184 0-101.83168 15.49312-140.51328 35.7376l-5.04832 2.64192v13.66528c-11.79136 2.86208-20.60288 13.44-20.60288 26.09664V844.032a26.9568 26.9568 0 0 0 26.92608 26.92096 26.94656 26.94656 0 0 0 26.92096-26.92096v-287.77984l4.11648-2.16064c31.5392-16.53248 60.00128-29.17888 114.51904-29.17888 58.99776 0 86.72256 14.58176 118.82496 31.4624 33.60256 17.7152 71.63392 37.75488 144.04608 37.75488 65.63328 0 102.46144-16.18432 134.54848-32.75264a26.88 26.88 0 0 0 14.54592-23.9616V496.896a260.08576 260.08576 0 0 0 15.52384-6.31808l5.61152-2.49344h-0.01024z m-217.40032-233.03168c-22.15424 0-42.27584 4.52096-60.30848 13.5424l-6.15424-22.15424c22.15424-9.02144 42.65472-13.53728 61.5424-13.53728 32.80896-1.63328 48.40448 11.904 46.7712 40.61696 0.80896 35.29216-16.82944 52.52096-52.92544 51.69664-9.04192 0-18.4576-0.40448-28.30848-1.23392-3.28704 12.30848-4.92032 22.98368-4.92032 32 0 16.42496 6.15424 24.21248 18.4576 23.38304 28.71296 0 50.46272-4.92032 65.23392-14.7712l11.07456 23.38304c-22.15424 9.84576-47.19616 14.7712-75.07968 14.7712-27.904-0.80896-41.84576-16-41.84576-45.5424 0-19.69152 3.69152-39.78752 11.07456-60.30848l12.30848 3.69152c9.84576 1.65376 20.50048 2.46272 32 2.46272 19.69664 0.82944 29.11744-9.02144 28.30848-29.5424 0.80896-13.11232-4.92544-19.26656-17.2288-18.4576z m45.53728 206.77632c-85.34528-14.7712-156.30848-32.40448-212.92544-52.92544-1.65376 4.92032-4.11648 12.30848-7.38304 22.15424-2.4576 4.92544-4.11648 9.02144-4.92032 12.30848l-22.15424-6.15424c15.57504-36.096 28.30848-71.78752 38.15424-107.07968l22.15424 7.38304a472.8832 472.8832 0 0 0-17.2288 48 199.45472 199.45472 0 0 0 30.7712 12.30848 919.01952 919.01952 0 0 0-6.15424-83.69664 956.0832 956.0832 0 0 0-61.5424 9.84576l-2.46272-22.15424c18.8672-1.63328 37.7344-3.69152 56.61696-6.15424 0-13.11744-0.42496-26.25024-1.2288-39.38304-9.04192 0-22.15424 0.82944-39.38304 2.4576 12.30848-1.63328 11.07456-1.63328-3.69152 0v-25.84576c13.94176 0.82432 27.88352 1.2288 41.84576 1.2288-0.82432-4.096-1.2288-10.65472-1.2288-19.69152-0.82944-9.02144-1.2288-15.57504-1.2288-19.69152h24.61696v40.61696c4.92544 0 12.30848-0.40448 22.15936-1.2288h19.69152v23.38304c-13.1328-0.80896-26.67008-1.2288-40.61696-1.2288l2.4576 35.69152c4.92032-0.80896 11.88352-2.03776 20.92544-3.69152 9.84576-1.63328 16.80896-2.8672 20.92032-3.69152l2.46272 20.92544a282.368 282.368 0 0 1-36.92544 4.92032c0 11.49952 0.40448 23.38304 1.2288 35.69152h16c8.19712 0.82944 14.35136 1.23392 18.4576 1.23392l-1.2288 19.69152c-4.11136 0-9.44128-0.40448-16-1.23392-7.37792 0-12.72832-0.40448-16-1.2288 0 14.7712 0.80896 28.73344 2.4576 41.84576 50.04288 17.2288 102.56384 27.904 157.54752 32l-6.16448 23.39328z" fill="#e0620d" /></svg>