<?xml version="1.0" standalone="no"?><!DOCTYPE svg PUBLIC "-//W3C//DTD SVG 1.1//EN" "http://www.w3.org/Graphics/SVG/1.1/DTD/svg11.dtd"><svg class="icon" width="32px" height="32.00px" viewBox="0 0 1024 1024" version="1.1" xmlns="http://www.w3.org/2000/svg"><path d="M730.743 604.69c0 5.17-0.972 10.051-2.372 14.779 0.666 0.222 1.195 0.7 1.843 0.938-10.103 16.64-16.298 35.806-16.298 56.525V978.91a22.409 22.409 0 1 1-44.834 0V666.64c0-0.734 0.256-1.382 0.41-2.065-0.137-1.331-0.41-2.628-0.41-4.01 0-13.654 6.587-25.703 16.708-33.707l-0.034-0.308a29.355 29.355 0 0 0 8.55-20.497c0-10.052-5.12-18.875-12.92-24.32l-29.44 19.166a17.1 17.1 0 0 1-23.33-4.488l-7.884-11.435c-0.342 0.137-0.785 0.085-1.127 0.222 0.154-0.376 0.376-0.717 0.53-1.11l-35.67-51.78c-2.594 91.665-28.57 171.008-66.765 216.167V878.66h-0.563c-2.97 71.595-34.014 128.137-72.311 128.137-38.298 0-69.342-56.542-72.312-128.137h-0.563V748.476c-40.26-47.616-67.277-133.018-67.277-231.032 0-149.794 62.754-271.24 140.152-271.24 50.397 0 94.447 51.66 119.16 128.938l120.302 174.746c26.453 5 46.455 27.597 46.455 54.801zM517.7 218.947c-57.275 0-103.714-45.175-103.714-100.88S460.425 17.202 517.7 17.202c57.293 0 103.714 45.159 103.714 100.864 0 55.706-46.42 100.881-103.714 100.881z" fill="#047820" /></svg>