<?xml version="1.0" standalone="no"?><!DOCTYPE svg PUBLIC "-//W3C//DTD SVG 1.1//EN" "http://www.w3.org/Graphics/SVG/1.1/DTD/svg11.dtd"><svg class="icon" width="30px" height="30.00px" viewBox="0 0 1024 1024" version="1.1" xmlns="http://www.w3.org/2000/svg"><path d="M512 3.805676c-280.667308 0-508.193301 227.525993-508.193301 508.193301s227.525993 508.193301 508.193301 508.193301 508.193301-227.525993 508.193301-508.193301S792.667308 3.805676 512 3.805676zM524.611226 288.140513l208.094432 0 0 191.278441L587.670423 479.418954l0 94.588285c-1.412163 23.845081 9.7869 35.044144 33.630958 33.631982l44.141336 0c23.812335 1.412163 37.113269-8.408507 39.937594-29.42824 2.791579-9.7869 5.583159-26.602891 8.407484-50.446949 0-4.203742 0-6.995321 0-8.407484 16.815991 5.615904 33.631982 10.509355 50.447972 14.71412-2.825348 22.431895-6.306636 43.451628-10.510378 63.059198-7.02909 43.451628-33.630958 63.780629-79.875189 60.956304l-65.161069 0c-51.860135 1.412163-77.082586-22.399149-75.670423-71.466682L533.018709 426.870134l147.137105 0 0-88.282672L524.611226 338.587462 524.611226 288.140513zM753.726413 750.573607c-109.302405 0-191.279465-0.722454-245.930155-2.101871-92.486414 1.379417-152.064324-23.845081-178.667216-75.670423-7.028067 29.427216-18.228153 59.544141-33.630958 90.38352-12.612249-11.232832-25.945929-23.121604-39.937594-35.732829 28.015054-43.418882 40.627303-113.506147 37.835723-210.197326l48.345078 4.203742c0 32.253588-0.722454 60.957327-2.101871 86.181825 12.612249 29.427216 27.325345 50.446949 44.141336 63.058175L383.780757 487.827461 261.866103 487.827461l0-46.243207 100.893898 0 0-67.26294-84.07893 0 0-46.243207 84.07893 0 0-67.26294 52.549843 0 0 67.26294 79.874165 0 0 46.243207-79.874165 0 0 67.26294 94.589308 0 0 46.243207-73.569576 0 0 75.670423 67.263963 0 0 46.243207-67.263963 0 0 86.180801c21.019733 4.203742 46.932915 6.305613 77.773318 6.305613 110.680798 0 195.482183 0 254.336616 0C761.411443 719.043497 756.516969 735.137033 753.726413 750.573607z" fill="#eb6877" /></svg>