<?xml version="1.0" standalone="no"?><!DOCTYPE svg PUBLIC "-//W3C//DTD SVG 1.1//EN" "http://www.w3.org/Graphics/SVG/1.1/DTD/svg11.dtd"><svg class="icon" width="33px" height="33.00px" viewBox="0 0 1024 1024" version="1.1" xmlns="http://www.w3.org/2000/svg"><path d="M539.03333334 247.03333334c-27.8 38.5-59.7 70.5-95.5 96.1h196.1c-43-29-76.5-61-100.6-96.1z" fill="#7DC5EB" /><path d="M466.73333334 21.13333334C218.43333334 21.13333334 17.23333334 222.33333334 17.23333334 470.63333334s201.3 449.5 449.5 449.5 449.5-201.3 449.5-449.5S715.03333334 21.13333334 466.73333334 21.13333334zM522.53333334 209.33333334h33.2c32 50.7 86.9 95.5 164.7 134.4l-21.7 33.2c-21-9.9-40-20.8-57.2-32.6v34.9h-79.5v61.8h137.8v37.2H561.93333334V598.33333334c0 30.5-14.9 45.7-44.6 45.7h-50.9l-8.6-38.9c17.9 1.9 33.2 2.9 45.7 2.9 12.6 0 18.9-6.5 18.9-19.4V478.03333334H384.13333334v-37.2h138.4v-61.8h-83.5v-32.6c-16.4 11.4-35.1 22.5-56 33.2L361.33333334 347.03333334c70-35.4 123.8-81.3 161.2-137.7z m182.4 396.8l-32 22.3c-16.4-32-40-69-70.9-110.9l30.9-18.9c31.9 42 55.9 77.8 72 107.5z m-305.9 19.5l-30.9-21.7c24-27.4 45.4-61 64-100.6l32 15.4c-18.6 41.9-40.4 77.5-65.1 106.9zM250.33333334 215.63333334c39.6 29.7 72.8 59.5 99.5 89.2l-29.2 28.6c-24.4-29-57.2-59.3-98.3-90.9l28-26.9z m464.3 504.9H587.13333334c-19.4 0-53.9-0.4-103.5-1.1-37.7-0.8-68-4.2-90.9-10.3-22.5-6.9-43.1-20.8-61.8-41.7-8-9.5-15.4-14.3-22.3-14.3-13.7 0-36.4 26.3-68 78.9l-30.9-28c30.5-48 57.4-77.2 80.6-87.5V442.63333334h-81.2v-37.7h119.5v213.8c6.5 4.6 11.2 9 14.3 13.2 14.1 16.4 29.3 28.4 45.7 36 18.3 8 44.4 12.6 78.3 13.7 41.2 0.8 79.3 1.1 114.4 1.1 17.2 0 44-0.4 80.6-1.1 30.1-0.8 50.9-1.5 62.3-2.3l-9.6 41.2z" fill="#7DC5EB" /></svg>