<?xml version="1.0" standalone="no"?><!DOCTYPE svg PUBLIC "-//W3C//DTD SVG 1.1//EN" "http://www.w3.org/Graphics/SVG/1.1/DTD/svg11.dtd"><svg class="icon" width="30px" height="30.00px" viewBox="0 0 1024 1024" version="1.1" xmlns="http://www.w3.org/2000/svg"><path d="M512 512m-511.813818 0a511.813818 511.813818 0 1 0 1023.627636 0 511.813818 511.813818 0 1 0-1023.627636 0Z" fill="#34CCDC" /><path d="M451.304727 569.344a47.104 47.104 0 0 0-5.585454 32.954182c0 0.930909 10.798545 102.772364-190.091637 192.139636a47.104 47.104 0 0 0 38.353455 86.202182c163.84-72.797091 219.694545-161.419636 237.754182-223.418182 56.971636 26.251636 143.173818 82.292364 158.068363 186.181818a47.104 47.104 0 1 0 93.090909-13.405091c-21.038545-147.083636-135.354182-223.418182-211.316363-258.234181a284.672 284.672 0 0 1-18.618182-63.301819 250.786909 250.786909 0 0 0 232.354909 4.096A47.104 47.104 0 0 0 744.727273 428.218182c-115.246545 57.716364-212.061091-51.758545-215.970909-55.854546a47.104 47.104 0 0 0-44.683637-15.825454c-70.004364 11.729455-202.379636 70.376727-202.379636 209.454545a47.104 47.104 0 1 0 94.208 0 107.054545 107.054545 0 0 1 62.743273-94.580363 304.034909 304.034909 0 0 0 12.474181 97.931636zM620.357818 214.481455a95.138909 95.138909 0 1 1-95.138909-95.13891 95.138909 95.138909 0 0 1 95.138909 95.13891z" fill="#FFFFFF" /></svg>